<?xml version="1.0" encoding="UTF-8"?>
<svg id="Layer_1" xmlns="http://www.w3.org/2000/svg" version="1.1" viewBox="0 0 128 128">
  <!-- Generator: Adobe Illustrator 29.1.0, SVG Export Plug-In . SVG Version: 2.1.0 Build 142)  -->
  <defs>
    <style>
      .st0 {
        fill: #891617;
      }

      .st0, .st1 {
        fill-rule: evenodd;
      }

      .st2 {
        fill: #ffeea8;
      }

      .st1 {
        fill: #ffd400;
      }
    </style>
  </defs>
  <rect class="st2" x="4.3" y="4.3" width="119.3" height="119.3" rx="13" ry="13"/>
  <path class="st0" d="M109.8,55.6v-1c3.3-5,5-10.7,5-16.7s-.7-8.1-2.2-11.9v-.3c-2.5-5.3-6.3-10-11.2-13.2-1-.7-2.1-1.3-3.1-1.7l-.3-.2c-2.1-1-4.3-1.8-6.4-2.4v22.9c1.7,2,2.6,4.4,2.6,6.8,0,5.5-4.6,10.2-10.1,10.2h-10.1v-10.2c0-5.5,4.6-10.2,10.1-10.2h.7c.6,0,1.2,0,1.7.2h.7c1,.5,2.1.9,3,1.6V7.9c-.9-.2-2.1-.3-3.2-.5h-2.8c-3.5,0-6.8.6-10.1,1.7v-1.7H2.9v1.8h50.9v2H2.9v1.8h50.9v2H2.9v1.6h50.9v2.1H2.9v1.7h50.9v2H2.9v1.6h50.9v2.2H2.9v1.5h50.9v2.2H2.9v1.5h50.9v2.3H2.9v1.4h50.9v2.3H2.9v1.4h50.9v2.4H2.9v1.3h50.9v2.4H2.9v1.3h50.9v2.5H2.9v1.2h26.8c-2.4.6-4.6,1.5-6.9,2.5H2.9v1.2h17.8c-1.4.8-2.8,1.7-3.9,2.6H2.9v1h12.8c-1,.8-2,1.7-2.9,2.8H2.9v.9h9c-.8.9-1.5,1.8-2.2,2.8H2.9v.9h6.1c-.6.9-1.2,1.8-1.7,2.9H2.9v.8h4c-.5.9-.9,2-1.4,2.9h-2.6v.8h2.4c-.3.9-.7,2-1,3h-1.4v.7h1.2c-.2,1-.5,2-.7,3h-.5v.7h.5c-.3,2-.5,3.8-.5,5.5,0,19.7,16,35.7,35.7,35.7h50.9c19.7,0,35.7-16,35.7-35.7s-5.8-22.6-15.3-29.2ZM53.8,83.8c0,8.4-6.8,15.2-15.2,15.2s-15.2-6.8-15.2-15.2,6.8-15.1,15.1-15.2h15.3v15.2ZM89.4,99c0,.1-15.2.1-15.2.1v-30.5h15.2c8.4,0,15.2,6.8,15.2,15.2s-6.8,15.2-15.2,15.2Z"/>
  <path class="st1" d="M57.2,65.3h13.7v-13.7h-13.7v13.7ZM70.6,86.7v.2c.1,0,.1-1.6.1-1.6v-16.7h-13.7v15.2c0,10.2-8.3,18.7-18.7,18.7s-18.5-8.4-18.5-18.7,8.3-18.5,18.5-18.7h15.3v-13.7h-15.2c-17.8,0-32.2,14.4-32.2,32.2s14.4,32.2,32.2,32.2,30.5-12.7,32.1-29.2ZM70.7,38c0-7.6,6-13.8,13.6-13.8h2.5v-13.4h-2.5c-3.9,0-7.6.8-11.3,2.4l-2.4,1.2v-3.6h-13.7v37.4h13.7v-10.2h.1ZM106.4,56.6h.2l-1.6-1.2,1.2-1.5c3.6-4.7,5.3-10.4,5.3-16.1,0-11.3-6.7-20.8-16.4-24.9v16.9c1,1.5,1.8,3.1,2.3,4.7,0,.5,0,.8.2,1.2v2.3c0,7.5-6,13.7-13.6,13.7h-10.1v13.7h15.2c10.2,0,18.7,8.3,18.7,18.7s-8.4,18.7-18.7,18.7h-18.5v-3.5c-3.6,7.5-9.6,13.6-17,17h35.7c17.7,0,32.2-14.4,32.2-32.2s-5.6-21.6-15.1-27.5Z"/>
</svg>