<svg xmlns="http://www.w3.org/2000/svg" viewBox="0 0 400 100"><path d="M92.9 43.2v-.9c2.9-4.3 4.3-9.3 4.3-14.5s-.6-7-1.9-10.3v-.3c-2.2-4.6-5.5-8.7-9.7-11.5-.9-.6-1.8-1.1-2.7-1.5l-.3-.2c-1.8-.9-3.7-1.6-5.6-2.1v19.9c1.5 1.7 2.3 3.8 2.3 5.9 0 4.8-4 8.9-8.8 8.9h-8.8v-8.9c0-4.8 4-8.9 8.8-8.9h.6c.5 0 1 0 1.5.2h.6c.9.4 1.8.8 2.6 1.4V1.8c-.8-.2-1.8-.3-2.8-.4h-2.4c-3 0-5.9.5-8.8 1.5V1.4H0V3h44.2v1.7H0v1.6h44.2V8H0v1.4h44.2v1.8H0v1.5h44.2v1.7H0v1.4h44.2v1.9H0V19h44.2v1.9H0v1.3h44.2v2H0v1.2h44.2v2H0v1.2h44.2v2.1H0v1.1h44.2v2.1H0V35h44.2v2.2H0v1h23.3c-2.1.5-4 1.3-6 2.2H0v1h15.5c-1.2.7-2.4 1.5-3.4 2.3H0v.9h11.1c-.9.7-1.7 1.5-2.5 2.4H0v.8h7.8c-.7.8-1.3 1.6-1.9 2.4H0v.8h5.3c-.5.8-1 1.6-1.5 2.5H0v.7h3.5c-.4.8-.8 1.7-1.2 2.5H0v.7h2.1c-.3.8-.6 1.7-.9 2.6H0v.6h1c-.2.9-.4 1.7-.6 2.6H0v.6h.4c-.3 1.7-.4 3.3-.4 4.8 0 17.1 13.9 31 31 31h44.2c17.1 0 31-13.9 31-31s-5-19.6-13.3-25.4ZM44.2 67.7c0 7.3-5.9 13.2-13.2 13.2S17.8 75 17.8 67.7s5.9-13.1 13.1-13.2h13.3v13.2Zm31 13.2c0 .1-13.2.1-13.2.1V54.5h13.2c7.3 0 13.2 5.9 13.2 13.2s-5.9 13.2-13.2 13.2Zm63.1-56.6c.7-1.5 1.1 1.6 1.1-5.4s-3.2-10.6-9.6-10.6H121v36.2h5.4V29.1h3.3l5 15.4h5.7L134.6 28c1.8-1 3-2.2 3.7-3.7Zm-4.5-3.1c-.1.7-.3 1.3-.6 1.8s-.7.7-1.3 1.1c-.6.4-1.3.4-2.3.4h-3.2V13.1h2.9c1 0 1.8.2 2.4.4.6.2 1.1.6 1.4 1.1.4.5.7 1.1.7 1.8.2.7.2 1.5.2 2.4s-.2 1.7-.2 2.4Zm14.5 15.4h7.4l1.6 7.8h5.4l-8.5-36.1h-4.5l-8.5 36.1h5.5l1.6-7.8Zm3.7-17.9 2.7 13h-5.4l2.7-13Zm18.6 11.7h2.8c2 0 3.6-.3 4.9-1 1.2-.7 2.2-1.6 3-2.8.7-1 1-2.2 1.3-3.2.3-1 .3-1.9.3-4s-.1-3.8-.5-5.1c-.3-1.3-1-2.4-1.9-3.4-.9-1-2-1.6-3.1-2-1.2-.4-2.5-.6-4-.6h-8.2v36.2h5.4V30.4Zm0-17.3h2.9c1.1 0 1.9.2 2.5.5.6.3 1 .7 1.3 1.3.3.6.5 1.2.5 2v4.9c0 .7-.2 1.4-.5 1.9-.2.6-.7 1-1.3 1.3-.6.3-1.5.5-2.6.5h-2.6v-.2h-.2V13.1Zm28.6 31.3c1.1-.4 2.1-1 3-1.7.9-.8 1.6-1.7 2.1-2.8.5-1.1.8-2.4.8-3.9V16.9c0-1.5-.3-2.8-.8-3.9s-1.2-2.1-2.1-2.8c-.9-.8-1.9-1.3-3-1.7-1.1-.4-2.2-.6-3.3-.6s-2.2.2-3.3.6c-1.1.4-2.1 1-3 1.7-.9.7-1.6 1.7-2.1 2.8s-.8 2.4-.8 3.9V36c0 1.5.3 2.8.8 3.9s1.2 2.1 2.1 2.8c.9.8 1.9 1.3 3 1.7 1.1.4 2.2.6 3.3.6s2.2-.2 3.3-.6Zm-6-5.7c-.7-.6-1.1-1.5-1.1-2.8V16.8c0-1.3.4-2.2 1.1-2.8s1.6-.9 2.6-.9 1.9.3 2.6.9 1.1 1.5 1.1 2.8v19.1c0 1.3-.4 2.2-1.1 2.8-.7.6-1.6.9-2.6.9s-1.9-.3-2.6-.9Zm28.9 5.5c1.2-.5 2.2-1.3 2.9-2.2.7-1 1.3-2.2 1.6-3.4.3-1.2.5-2.8.5-4.2s-.2-2.6-.2-3.6c-.1-1.1-.3-2-.8-2.8s-1-1.5-1.8-2.1c-.8-.6-1.8-1.2-3-1.6l-4.1-1.6c-.7-.3-1.3-.5-1.7-.8-.4-.2-.7-.5-.9-.9-.2-.4-.4-.8-.4-1.3v-1.8c0-.6 0-1.2.2-1.8 0-.6.3-1.1.6-1.5.2-.5.6-.8 1.1-1.1q.5-.4 1.9-.4c1.4 0 2.4.4 3 1.3.6.9.9 1.9.9 3.1v1.2h5.1V16c0-1-.2-2-.6-3-.5-.9-1.1-1.8-1.9-2.6-.8-.8-1.8-1.4-2.9-1.9-1.1-.5-2.3-.7-3.7-.7s-2.8.3-4 .8c-1.1.5-2.1 1.2-2.9 2.1-.8.9-1.4 2-1.8 3.2-.4 1.2-.6 1.7-.6 3.9s.4 4.1 1.2 5.6c.7 1.6 2.3 2.8 4.7 3.7l3.9 1.5 1.6.8c.4.2.8.5 1 .9.3.4.5.9.5 1.5v2.4c0 .9.1 1.6 0 2.3 0 .7-.2 1.2-.5 1.7s-.7.8-1.2 1.1c-.5.4-.8.4-2.2.4s-2.4-.4-3-1.2c-.6-.8-.9-1.6-.9-2.6v-1.4h-5.4v1.9c0 1.2.2 2.3.7 3.4.5 1 1.2 1.9 2 2.7.9.7 1.9 1.4 3 1.8 1.1.5 2 .7 3.7.7s3.2-.3 4.4-.8Zm26.5-4.3c.5-1.1.8-2.4.8-3.9V16.9c0-1.5-.3-2.8-.8-3.9s-1.2-2.1-2.1-2.8c-.9-.8-1.9-1.3-3-1.7-1.1-.4-2.2-.6-3.3-.6s-2.2.2-3.3.6c-1.1.4-2.1 1-3 1.7-.9.7-1.6 1.7-2.1 2.8s-.8 2.4-.8 3.9V36c0 1.5.3 2.8.8 3.9s1.2 2.1 2.1 2.8c.9.8 1.9 1.3 3 1.7 1.1.4 2.2.6 3.3.6s2.2-.2 3.3-.6c1.1-.4 2.1-1 3-1.7.9-.8 1.6-1.7 2.1-2.8Zm-4.9-4c0 1.3-.4 2.2-1.1 2.8-.7.6-1.6.9-2.6.9s-1.9-.3-2.6-.9c-.7-.6-1.1-1.5-1.1-2.8V16.8c0-1.3.4-2.2 1.1-2.8s1.6-.9 2.6-.9 1.9.3 2.6.9 1.1 1.5 1.1 2.8v19.1Zm35.3 6.4c1.6-1.7 2.4-4.1 2.4-7.3v-2.1c0-1.8-.3-3.4-.9-4.5-.7-1.2-1.6-2-2.9-2.6.6-.3 1.1-.7 1.6-1.1.5-.4.9-.9 1.2-1.4.3-.5.5-1.1.7-1.8s.2-1.5.2-2.5v-1.3c0-1.2-.2-2.4-.5-3.5-.3-1.2-.9-2.1-1.7-3-.8-.9-1.8-1.6-3-2.1-1.1-.5-2.6-.8-4.4-.8h-7.8v36.6h7.4c3.6 0 6.1-.9 7.7-2.6ZM269.2 23v-9.9h2.3c1.8 0 3.1.4 3.8 1.2s1 2 1 3.7-.3 2.9-.9 3.8c-.6.9-1.9 1.3-3.7 1.3h-2.5Zm-.1 16.2V27.5h2.4c1 0 1.8.2 2.4.4.6.3 1.1.6 1.4 1.1.4.4.7 1 .7 1.7.2.7.2 1.5.2 2.4v2.5c0 .7-.3 1.3-.6 1.9s-.8 1-1.4 1.3c-.6.3-1.5.5-2.6.5h-2.5Zm20 3.5c.9.8 1.9 1.3 3 1.7 1.1.4 2.2.6 3.3.6s2.2-.2 3.3-.6c1.1-.4 2.1-1 3-1.7.9-.8 1.6-1.7 2.1-2.8.5-1.1.8-2.4.8-3.9V16.9c0-1.5-.3-2.8-.8-3.9s-1.2-2.1-2.1-2.8c-.9-.8-1.9-1.3-3-1.7s-2.2-.6-3.3-.6-2.2.2-3.3.6c-1.1.4-2.1 1-3 1.7-.9.7-1.6 1.7-2.1 2.8s-.8 2.4-.8 3.9V36c0 1.5.3 2.8.8 3.9s1.2 2.1 2.1 2.8Zm2.6-25.9c0-1.3.4-2.2 1.1-2.8s1.6-.9 2.6-.9 1.9.3 2.6.9 1.1 1.5 1.1 2.8v19.1c0 1.3-.4 2.2-1.1 2.8-.7.6-1.6.9-2.6.9s-1.9-.3-2.6-.9c-.7-.6-1.1-1.5-1.1-2.8V16.8Zm29.8 10.6-7-19.1h-5.3v36.1h5.5V22.5L320 38h2.8l5.3-15.5v21.9h5.4V8.3h-5.2l-6.9 19.1Zm31.1-1.6c.6-.3 1.1-.7 1.6-1.1.5-.4.9-.9 1.2-1.4.3-.5.5-1.1.7-1.8s.2-1.5.2-2.5v-1.3c0-1.2-.2-2.4-.5-3.5-.3-1.2-.9-2.1-1.7-3-.7-.9-1.8-1.6-3-2.1-1.1-.5-2.6-.8-4.4-.8h-7.9v36.6h7.4c3.6 0 6.1-.9 7.7-2.6 1.7-1.7 2.5-4.1 2.5-7.3v-2.1c0-1.8-.3-3.4-.9-4.5-.7-1.2-1.6-2-2.9-2.6Zm-1.4 9.8c0 .7-.3 1.4-.6 1.9-.3.6-.8 1-1.4 1.3-.6.3-1.5.5-2.6.5h-2.5V27.5h2.4c1 0 1.8.2 2.4.4.6.3 1.1.6 1.4 1.1.4.4.7 1 .7 1.7.2.7.2 1.5.2 2.4v2.5Zm-.8-13.8c-.6.9-1.9 1.3-3.7 1.3h-2.6v-10h2.3c1.8 0 3.1.4 3.8 1.2s1.1 2 1.1 3.7-.3 2.9-.9 3.8Zm16.4-13.5-8.5 36.1h5.4l1.6-7.8h7.4l1.6 7.8h5.5l-8.5-36.1h-4.5Zm-.4 23.4 2.7-13 2.7 13h-5.4Zm33.2-.9c0-1.1-.3-2-.8-2.8s-1-1.5-1.8-2.1c-.8-.6-1.8-1.2-3-1.6l-4.1-1.6c-.7-.3-1.3-.5-1.7-.8-.4-.2-.7-.5-.9-.9-.2-.4-.4-.8-.4-1.3v-1.8c0-.6 0-1.2.2-1.8 0-.6.3-1.1.6-1.5.2-.5.6-.8 1.1-1.1q.5-.4 1.9-.4c1.4 0 2.4.4 3 1.3.6.9.9 1.9.9 3.1v1.2h5.1V16c0-1-.2-2-.6-3-.5-.9-1.1-1.8-1.9-2.6-.8-.8-1.8-1.4-2.9-1.9-1.1-.5-2.3-.7-3.7-.7s-2.8.3-4 .8c-1.1.5-2.1 1.2-2.9 2.1-.8.9-1.4 2-1.8 3.2-.4 1.2-.6 1.7-.6 3.9s.4 4.1 1.2 5.6c.7 1.6 2.3 2.8 4.7 3.7l3.9 1.5 1.6.8c.4.2.8.5 1 .9.3.4.5.9.5 1.5v4.7c-.1.7-.2 1.2-.5 1.7s-.7.8-1.2 1.1c-.5.4-.8.4-2.2.4s-2.4-.4-3-1.2c-.6-.8-.9-1.6-.9-2.6v-1.4H381v1.9c0 1.2.2 2.3.7 3.4.5 1 1.2 1.9 2 2.7.9.7 1.9 1.4 3 1.8 1.1.5 2 .7 3.7.7s3.2-.3 4.4-.8 2.2-1.3 2.9-2.2c.7-1 1.3-2.2 1.6-3.4s.5-2.8.5-4.2-.2-2.6-.2-3.6ZM129.1 55.7h-8 .1v36.2h7.5c3.3 0 5.7-.8 7.4-2.4 1.7-1.7 2.6-4.1 2.6-7.5V65.1c0-2.9-.9-5.2-2.5-6.9-1.7-1.7-4-2.5-7.1-2.5Zm4.2 26.6c0 1.6-.4 2.8-1 3.5-.7.7-1.8 1.1-3.3 1.1h-2.5.1V60.4h2.5c1.6 0 2.7.4 3.3 1.2.6.7.9 1.9.9 3.3v17.4Zm10.6 9.5h5.4V55.7h-5.4v36.1Zm10.7-.1h16.2v-5.1H160V76h9.4v-4.9H160V60.5h10.8v-4.8h-16.2v36Zm36-16.4c-.5-.8-1-1.5-1.8-2.1-.8-.6-1.8-1.2-3-1.6l-4.1-1.6c-.7-.3-1.3-.5-1.7-.8-.4-.2-.7-.5-.9-.9-.2-.4-.4-.8-.4-1.3v-1.8c0-.6 0-1.2.2-1.8 0-.6.3-1.1.6-1.5.2-.5.6-.8 1.1-1.1q.5-.4 1.9-.4c1.4 0 2.4.4 3 1.3.6.9.9 1.9.9 3.1V66h5.1v-2.5c0-1-.2-2-.6-3-.5-.9-1.1-1.8-1.9-2.6-.8-.8-1.8-1.4-2.9-1.9-1.1-.5-2.3-.7-3.7-.7s-2.8.3-4 .8c-1.1.5-2.1 1.2-2.9 2.1-.8.9-1.4 2-1.8 3.2-.4 1.2-.6 1.7-.6 3.9s.4 4.1 1.2 5.6c.7 1.6 2.3 2.8 4.7 3.7l3.9 1.5 1.6.8c.4.2.8.5 1 .9.3.4.5.9.5 1.5v2.4c0 .9.1 1.6 0 2.3 0 .7-.2 1.2-.5 1.7s-.7.7-1.2 1.1c-.5.4-.8.4-2.2.4s-2.4-.4-3-1.2c-.6-.8-.9-1.6-.9-2.6v-1.6h-5.4v1.9c0 1.2.2 2.3.7 3.4.5 1 1.2 1.9 2 2.7.9.7 1.8 1.4 3 1.8 1.1.5 2 .7 3.7.7s3.2-.3 4.4-.8c1.2-.5 2.2-1.3 2.9-2.2.7-1 1.3-2.2 1.6-3.4.3-1.2.5-2.8.5-4.2s-.2-2.6-.2-3.6c-.1-1.1-.4-2-.8-2.8Zm5.3 16.4H212v-5.1h-10.7V76h9.4v-4.9h-9.4V60.5H212v-4.8h-16.1v36Zm25-36h-5.4v36h16.2v-5.1h-10.8V55.7Zm29.7 0h-5.5v36h16.2v-5.1h-10.7V55.7Zm7.6 4.8h6.2v31.2h5.4V60.5h6.3v-4.8h-17.9v4.8Zm28.3-4.8h-8v36.2h7.6c3.3 0 5.7-.8 7.4-2.4 1.7-1.7 2.6-4.1 2.6-7.5V65.1c0-2.9-.9-5.2-2.5-6.9-1.7-1.7-4-2.5-7.1-2.5Zm4.3 26.6c0 1.6-.4 2.8-1 3.5-.7.7-1.8 1.1-3.3 1.1H284h.1V60.4h2.5c1.6 0 2.7.4 3.3 1.2.6.7.9 1.9.9 3.3v17.4Zm15.8-26.6-8.5 36.1h5.4l1.6-7.8h7.4l1.6 7.8h5.5l-8.5-36.1h-4.5Zm-.5 23.3 2.7-13 2.7 13h-5.4Z" style="fill-rule:evenodd;fill:#891617"/><path d="M47.2 51.6h11.9V39.7H47.2v11.9Zm11.6 18.6v.2c.1 0 .1-1.4.1-1.4V54.5H47v13.2c0 8.9-7.2 16.2-16.2 16.2s-16.1-7.3-16.1-16.2 7.2-16.1 16.1-16.2h13.3V39.6H30.9c-15.5 0-28 12.5-28 28s12.5 28 28 28 26.5-11 27.9-25.4Zm.1-42.3c0-6.6 5.2-12 11.8-12h2.2V4.3h-2.2c-3.4 0-6.6.7-9.8 2.1l-2.1 1V4.3H46.9v32.5h11.9v-8.9Zm31 16.2h.2l-1.4-1 1-1.3c3.1-4.1 4.6-9 4.6-14 0-9.8-5.8-18.1-14.2-21.6v14.7c.9 1.3 1.6 2.7 2 4.1 0 .4 0 .7.2 1v2c0 6.5-5.2 11.9-11.8 11.9h-8.8v11.9h13.2c8.9 0 16.2 7.2 16.2 16.2s-7.3 16.2-16.2 16.2H58.8v-3C55.7 87.7 50.5 93 44 96h31c15.4 0 28-12.5 28-28s-4.9-18.8-13.1-23.9Z" style="fill:#ffd400;fill-rule:evenodd"/></svg>