<?xml version="1.0" encoding="UTF-8"?>
<svg id="Layer_1" xmlns="http://www.w3.org/2000/svg" version="1.1" viewBox="0 0 400 100">
  <!-- Generator: Adobe Illustrator 29.1.0, SVG Export Plug-In . SVG Version: 2.1.0 Build 142)  -->
  <defs>
    <style>
      .st0 {
        fill: #891617;
      }

      .st0, .st1 {
        fill-rule: evenodd;
      }

      .st1 {
        fill: #ffd400;
      }
    </style>
  </defs>
  <path class="st0" d="M92.9,43.2v-.9c2.9-4.3,4.3-9.3,4.3-14.5s-.6-7-1.9-10.3v-.3c-2.2-4.6-5.5-8.7-9.7-11.5-.9-.6-1.8-1.1-2.7-1.5l-.3-.2c-1.8-.9-3.7-1.6-5.6-2.1v19.9c1.5,1.7,2.3,3.8,2.3,5.9,0,4.8-4,8.9-8.8,8.9h-8.8v-8.9c0-4.8,4-8.9,8.8-8.9h.6c.5,0,1,0,1.5.2h.6c.9.4,1.8.8,2.6,1.4V1.8c-.8-.2-1.8-.3-2.8-.4h-2.4c-3,0-5.9.5-8.8,1.5v-1.5H0v1.6h44.2v1.7H0v1.6h44.2v1.7H0v1.4h44.2v1.8H0v1.5h44.2v1.7H0v1.4h44.2v1.9H0v1.3h44.2v1.9H0v1.3h44.2v2H0v1.2h44.2v2H0v1.2h44.2v2.1H0v1.1h44.2v2.1H0v1.1h44.2v2.2H0v1h23.3c-2.1.5-4,1.3-6,2.2H0v1h15.5c-1.2.7-2.4,1.5-3.4,2.3H0v.9h11.1c-.9.7-1.7,1.5-2.5,2.4H0v.8h7.8c-.7.8-1.3,1.6-1.9,2.4H0v.8h5.3c-.5.8-1,1.6-1.5,2.5H0v.7h3.5c-.4.8-.8,1.7-1.2,2.5H0v.7h2.1c-.3.8-.6,1.7-.9,2.6H0v.6h1c-.2.9-.4,1.7-.6,2.6h-.4v.6h.4c-.3,1.7-.4,3.3-.4,4.8,0,17.1,13.9,31,31,31h44.2c17.1,0,31-13.9,31-31s-5-19.6-13.3-25.4ZM44.2,67.7c0,7.3-5.9,13.2-13.2,13.2s-13.2-5.9-13.2-13.2,5.9-13.1,13.1-13.2h13.3v13.2ZM75.2,80.9h0c0,.1-13.2.1-13.2.1v-26.5h13.2c7.3,0,13.2,5.9,13.2,13.2s-5.9,13.2-13.2,13.2ZM138.3,24.3c.7-1.5,1.1,1.6,1.1-5.4s-3.2-10.6-9.6-10.6h-8.8v36.2h5.4v-15.4h3.3l5,15.4h5.7l-5.8-16.5c1.8-1,3-2.2,3.7-3.7ZM133.8,21.2c-.1.7-.3,1.3-.6,1.8s-.7.7-1.3,1.1c-.6.4-1.3.4-2.3.4h-3.2v-11.4h2.9c1,0,1.8.2,2.4.4.6.2,1.1.6,1.4,1.1.4.5.7,1.1.7,1.8.2.7.2,1.5.2,2.4s-.2,1.7-.2,2.4ZM148.3,36.6h7.4l1.6,7.8h5.4l-8.5-36.1h-4.5l-8.5,36.1h5.5l1.6-7.8ZM152,18.7l2.7,13h-5.4l2.7-13ZM170.6,30.4h2.8c2,0,3.6-.3,4.9-1,1.2-.7,2.2-1.6,3-2.8.7-1,1-2.2,1.3-3.2.3-1,.3-1.9.3-4s-.1-3.8-.5-5.1c-.3-1.3-1-2.4-1.9-3.4-.9-1-2-1.6-3.1-2-1.2-.4-2.5-.6-4-.6h-8.2v36.2h5.4v-14.1ZM170.6,13.1h2.9c1.1,0,1.9.2,2.5.5.6.3,1,.7,1.3,1.3.3.6.5,1.2.5,2v4.9c0,.7-.2,1.4-.5,1.9-.2.6-.7,1-1.3,1.3-.6.3-1.5.5-2.6.5h-2.6v-.2s-.2,0-.2,0v-12.2ZM199.2,44.4c1.1-.4,2.1-1,3-1.7.9-.8,1.6-1.7,2.1-2.8.5-1.1.8-2.4.8-3.9v-19.1c0-1.5-.3-2.8-.8-3.9s-1.2-2.1-2.1-2.8c-.9-.8-1.9-1.3-3-1.7-1.1-.4-2.2-.6-3.3-.6s-2.2.2-3.3.6c-1.1.4-2.1,1-3,1.7-.9.7-1.6,1.7-2.1,2.8s-.8,2.4-.8,3.9v19.1c0,1.5.3,2.8.8,3.9.5,1.1,1.2,2.1,2.1,2.8.9.8,1.9,1.3,3,1.7,1.1.4,2.2.6,3.3.6s2.2-.2,3.3-.6ZM193.2,38.7c-.7-.6-1.1-1.5-1.1-2.8v-19.1c0-1.3.4-2.2,1.1-2.8s1.6-.9,2.6-.9,1.9.3,2.6.9,1.1,1.5,1.1,2.8v19.1c0,1.3-.4,2.2-1.1,2.8-.7.6-1.6.9-2.6.9s-1.9-.3-2.6-.9ZM222.1,44.2c1.2-.5,2.2-1.3,2.9-2.2.7-1,1.3-2.2,1.6-3.4.3-1.2.5-2.8.5-4.2s-.2-2.6-.2-3.6c-.1-1.1-.3-2-.8-2.8s-1-1.5-1.8-2.1c-.8-.6-1.8-1.2-3-1.6l-4.1-1.6c-.7-.3-1.3-.5-1.7-.8-.4-.2-.7-.5-.9-.9-.2-.4-.4-.8-.4-1.3v-1.8c0-.6,0-1.2.2-1.8,0-.6.3-1.1.6-1.5.2-.5.6-.8,1.1-1.1q.5-.4,1.9-.4c1.4,0,2.4.4,3,1.3.6.9.9,1.9.9,3.1v1.2h5.1v-2.7c0-1-.2-2-.6-3-.5-.9-1.1-1.8-1.9-2.6-.8-.8-1.8-1.4-2.9-1.9-1.1-.5-2.3-.7-3.7-.7s-2.8.3-4,.8c-1.1.5-2.1,1.2-2.9,2.1-.8.9-1.4,2-1.8,3.2-.4,1.2-.6,1.7-.6,3.9s.4,4.1,1.2,5.6c.7,1.6,2.3,2.8,4.7,3.7l3.9,1.5c.6.3,1.2.6,1.6.8.4.2.8.5,1,.9.3.4.5.9.5,1.5v2.4c0,.9.1,1.6,0,2.3,0,.7-.2,1.2-.5,1.7s-.7.8-1.2,1.1c-.5.4-.8.4-2.2.4s-2.4-.4-3-1.2c-.6-.8-.9-1.6-.9-2.6v-1.4h-5.4v1.9c0,1.2.2,2.3.7,3.4.5,1,1.2,1.9,2,2.7.9.7,1.9,1.4,3,1.8,1.1.5,2,.7,3.7.7s3.2-.3,4.4-.8ZM248.6,39.9c.5-1.1.8-2.4.8-3.9v-19.1c0-1.5-.3-2.8-.8-3.9s-1.2-2.1-2.1-2.8c-.9-.8-1.9-1.3-3-1.7-1.1-.4-2.2-.6-3.3-.6s-2.2.2-3.3.6c-1.1.4-2.1,1-3,1.7-.9.7-1.6,1.7-2.1,2.8s-.8,2.4-.8,3.9v19.1c0,1.5.3,2.8.8,3.9.5,1.1,1.2,2.1,2.1,2.8.9.8,1.9,1.3,3,1.7,1.1.4,2.2.6,3.3.6s2.2-.2,3.3-.6c1.1-.4,2.1-1,3-1.7.9-.8,1.6-1.7,2.1-2.8ZM243.7,35.9c0,1.3-.4,2.2-1.1,2.8-.7.6-1.6.9-2.6.9s-1.9-.3-2.6-.9c-.7-.6-1.1-1.5-1.1-2.8v-19.1c0-1.3.4-2.2,1.1-2.8s1.6-.9,2.6-.9,1.9.3,2.6.9,1.1,1.5,1.1,2.8v19.1ZM279,42.3c1.6-1.7,2.4-4.1,2.4-7.3v-2.1c0-1.8-.3-3.4-.9-4.5-.7-1.2-1.6-2-2.9-2.6.6-.3,1.1-.7,1.6-1.1.5-.4.9-.9,1.2-1.4.3-.5.5-1.1.7-1.8s.2-1.5.2-2.5v-1.3c0-1.2-.2-2.4-.5-3.5-.3-1.2-.9-2.1-1.7-3-.8-.9-1.8-1.6-3-2.1-1.1-.5-2.6-.8-4.4-.8h-7.8v36.6h7.4c3.6,0,6.1-.9,7.7-2.6ZM269.2,23v-9.9h2.3c1.8,0,3.1.4,3.8,1.2s1,2,1,3.7-.3,2.9-.9,3.8c-.6.9-1.9,1.3-3.7,1.3h-2.5,0ZM269.1,39.2v-11.7h2.4c1,0,1.8.2,2.4.4.6.3,1.1.6,1.4,1.1.4.4.7,1,.7,1.7.2.7.2,1.5.2,2.4v2.5c0,.7-.3,1.3-.6,1.9s-.8,1-1.4,1.3c-.6.3-1.5.5-2.6.5h-2.5ZM289.1,42.7c.9.8,1.9,1.3,3,1.7,1.1.4,2.2.6,3.3.6s2.2-.2,3.3-.6c1.1-.4,2.1-1,3-1.7.9-.8,1.6-1.7,2.1-2.8.5-1.1.8-2.4.8-3.9v-19.1c0-1.5-.3-2.8-.8-3.9s-1.2-2.1-2.1-2.8c-.9-.8-1.9-1.3-3-1.7s-2.2-.6-3.3-.6-2.2.2-3.3.6c-1.1.4-2.1,1-3,1.7-.9.7-1.6,1.7-2.1,2.8s-.8,2.4-.8,3.9v19.1c0,1.5.3,2.8.8,3.9.5,1.1,1.2,2.1,2.1,2.8ZM291.7,16.8c0-1.3.4-2.2,1.1-2.8s1.6-.9,2.6-.9,1.9.3,2.6.9,1.1,1.5,1.1,2.8v19.1c0,1.3-.4,2.2-1.1,2.8-.7.6-1.6.9-2.6.9s-1.9-.3-2.6-.9c-.7-.6-1.1-1.5-1.1-2.8v-19.1ZM321.5,27.4h0l-7-19.1h-5.3v36.1h5.5v-21.9h0l5.3,15.5h2.8l5.3-15.5h0v21.9h5.4V8.3h-5.2l-6.9,19.1ZM352.6,25.8c.6-.3,1.1-.7,1.6-1.1.5-.4.9-.9,1.2-1.4.3-.5.5-1.1.7-1.8s.2-1.5.2-2.5v-1.3c0-1.2-.2-2.4-.5-3.5-.3-1.2-.9-2.1-1.7-3-.7-.9-1.8-1.6-3-2.1-1.1-.5-2.6-.8-4.4-.8h-7.9v36.6h7.4c3.6,0,6.1-.9,7.7-2.6,1.7-1.7,2.5-4.1,2.5-7.3v-2.1c0-1.8-.3-3.4-.9-4.5-.7-1.2-1.6-2-2.9-2.6ZM351.2,35.6c0,.7-.3,1.4-.6,1.9-.3.6-.8,1-1.4,1.3-.6.3-1.5.5-2.6.5h-2.5v-11.8h2.4c1,0,1.8.2,2.4.4.6.3,1.1.6,1.4,1.1.4.4.7,1,.7,1.7.2.7.2,1.5.2,2.4v2.5ZM350.4,21.8c-.6.9-1.9,1.3-3.7,1.3h-2.6v-10h2.3c1.8,0,3.1.4,3.8,1.2s1.1,2,1.1,3.7-.3,2.9-.9,3.8ZM366.8,8.3l-8.5,36.1h5.4l1.6-7.8h7.4l1.6,7.8h5.5l-8.5-36.1h-4.5ZM366.4,31.7l2.7-13h0s0,0,0,0h0s2.7,13,2.7,13h-5.4ZM399.6,30.8c0-1.1-.3-2-.8-2.8s-1-1.5-1.8-2.1c-.8-.6-1.8-1.2-3-1.6l-4.1-1.6c-.7-.3-1.3-.5-1.7-.8-.4-.2-.7-.5-.9-.9-.2-.4-.4-.8-.4-1.3v-1.8c0-.6,0-1.2.2-1.8,0-.6.3-1.1.6-1.5.2-.5.6-.8,1.1-1.1q.5-.4,1.9-.4c1.4,0,2.4.4,3,1.3.6.9.9,1.9.9,3.1v1.2h5.1v-2.7c0-1-.2-2-.6-3-.5-.9-1.1-1.8-1.9-2.6-.8-.8-1.8-1.4-2.9-1.9-1.1-.5-2.3-.7-3.7-.7s-2.8.3-4,.8c-1.1.5-2.1,1.2-2.9,2.1-.8.9-1.4,2-1.8,3.2-.4,1.2-.6,1.7-.6,3.9s.4,4.1,1.2,5.6c.7,1.6,2.3,2.8,4.7,3.7l3.9,1.5c.6.3,1.2.6,1.6.8.4.2.8.5,1,.9.3.4.5.9.5,1.5v2.4c0,.9,0,1.6,0,2.3-.1.7-.2,1.2-.5,1.7-.3.5-.7.8-1.2,1.1-.5.4-.8.4-2.2.4s-2.4-.4-3-1.2c-.6-.8-.9-1.6-.9-2.6v-1.4h-5.4v1.9c0,1.2.2,2.3.7,3.4.5,1,1.2,1.9,2,2.7.9.7,1.9,1.4,3,1.8,1.1.5,2,.7,3.7.7s3.2-.3,4.4-.8,2.2-1.3,2.9-2.2c.7-1,1.3-2.2,1.6-3.4s.5-2.8.5-4.2-.2-2.6-.2-3.6ZM129.1,55.7h-8,.1v36.2h7.5c3.3,0,5.7-.8,7.4-2.4,1.7-1.7,2.6-4.1,2.6-7.5v-16.9c0-2.9-.9-5.2-2.5-6.9-1.7-1.7-4-2.5-7.1-2.5ZM133.3,82.3c0,1.6-.4,2.8-1,3.5-.7.7-1.8,1.1-3.3,1.1h-2.5.1v-26.5h2.5c1.6,0,2.7.4,3.3,1.2.6.7.9,1.9.9,3.3v17.4ZM143.9,91.8h5.4v-36.1h-5.4v36.1ZM154.6,91.7h16.2v-5.1h-10.8v-10.6h9.4v-4.9h-9.4v-10.6h10.8v-4.8h-16.2v36ZM190.6,75.3c-.5-.8-1-1.5-1.8-2.1-.8-.6-1.8-1.2-3-1.6l-4.1-1.6c-.7-.3-1.3-.5-1.7-.8-.4-.2-.7-.5-.9-.9-.2-.4-.4-.8-.4-1.3v-1.8c0-.6,0-1.2.2-1.8,0-.6.3-1.1.6-1.5.2-.5.6-.8,1.1-1.1q.5-.4,1.9-.4c1.4,0,2.4.4,3,1.3.6.9.9,1.9.9,3.1v1.2h5.1v-2.5c0-1-.2-2-.6-3-.5-.9-1.1-1.8-1.9-2.6-.8-.8-1.8-1.4-2.9-1.9-1.1-.5-2.3-.7-3.7-.7s-2.8.3-4,.8c-1.1.5-2.1,1.2-2.9,2.1-.8.9-1.4,2-1.8,3.2-.4,1.2-.6,1.7-.6,3.9s.4,4.1,1.2,5.6c.7,1.6,2.3,2.8,4.7,3.7l3.9,1.5,1.6.8c.4.2.8.5,1,.9.3.4.5.9.5,1.5v2.4c0,.9.1,1.6,0,2.3,0,.7-.2,1.2-.5,1.7s-.7.7-1.2,1.1c-.5.4-.8.4-2.2.4s-2.4-.4-3-1.2c-.6-.8-.9-1.6-.9-2.6v-1.6h-5.4v1.9c0,1.2.2,2.3.7,3.4.5,1,1.2,1.9,2,2.7.9.7,1.8,1.4,3,1.8,1.1.5,2,.7,3.7.7s3.2-.3,4.4-.8c1.2-.5,2.2-1.3,2.9-2.2.7-1,1.3-2.2,1.6-3.4.3-1.2.5-2.8.5-4.2s-.2-2.6-.2-3.6c-.1-1.1-.4-2-.8-2.8ZM195.9,91.7h16.1v-5.1h-10.7v-10.6h9.4v-4.9h-9.4v-10.6h10.7v-4.8h-16.1v36ZM220.9,55.7h-5.4v36h16.2v-5.1h-10.8v-30.9ZM250.6,55.7h-5.5v36h16.2v-5.1h-10.7v-30.9ZM258.2,60.5h6.2v31.2h5.4v-31.2h6.3v-4.8h-17.9v4.8ZM286.5,55.7h-8v36.2h7.6c3.3,0,5.7-.8,7.4-2.4,1.7-1.7,2.6-4.1,2.6-7.5v-16.9c0-2.9-.9-5.2-2.5-6.9-1.7-1.7-4-2.5-7.1-2.5ZM290.8,82.3c0,1.6-.4,2.8-1,3.5-.7.7-1.8,1.1-3.3,1.1h-2.5.1v-26.5h2.5c1.6,0,2.7.4,3.3,1.2.6.7.9,1.9.9,3.3v17.4ZM306.6,55.7l-8.5,36.1h5.4l1.6-7.8h7.4l1.6,7.8h5.5l-8.5-36.1h-4.5ZM306.1,79l2.7-13,2.7,13h-5.4Z"/>
  <path class="st1" d="M47.2,51.6h11.9v-11.9h-11.9v11.9ZM58.8,70.2v.2c.1,0,.1-1.4.1-1.4v-14.5h-11.9v13.2c0,8.9-7.2,16.2-16.2,16.2s-16.1-7.3-16.1-16.2,7.2-16.1,16.1-16.2h13.3v-11.9h-13.2c-15.5,0-28,12.5-28,28s12.5,28,28,28,26.5-11,27.9-25.4ZM58.9,27.9h0c0-6.6,5.2-12,11.8-12h2.2V4.3h-2.2c-3.4,0-6.6.7-9.8,2.1l-2.1,1v-3.1h-11.9v32.5h11.9v-8.9ZM89.9,44.1h.2c0,0-1.4-1-1.4-1l1-1.3c3.1-4.1,4.6-9,4.6-14,0-9.8-5.8-18.1-14.2-21.6v14.7c.9,1.3,1.6,2.7,2,4.1,0,.4,0,.7.2,1v2c0,6.5-5.2,11.9-11.8,11.9h-8.8v11.9h13.2c8.9,0,16.2,7.2,16.2,16.2s-7.3,16.2-16.2,16.2h-16.1v-3c-3.1,6.5-8.3,11.8-14.8,14.8h31c15.4,0,28-12.5,28-28s-4.9-18.8-13.1-23.9Z"/>
</svg>